<svg width="24" height="24" viewBox="0 0 24 24" fill="none" xmlns="http://www.w3.org/2000/svg">
<path d="M24 18C24 19.4727 22.806 20.6667 21.3333 20.6667H2.66667C1.194 20.6667 0 19.4727 0 18V6C0 4.52733 1.194 3.33333 2.66667 3.33333H21.3333C22.806 3.33333 24 4.52733 24 6V18Z" fill="#E30917"/>
<path d="M10.6667 16C8.45734 16 6.66667 14.21 6.66667 12C6.66667 9.79067 8.45734 8 10.6667 8C11.54 8 12.3467 8.28333 13.0047 8.75867C12.106 7.74267 10.7967 7.098 9.33334 7.098C6.626 7.098 4.43134 9.29267 4.43134 12C4.43134 14.708 6.626 16.9027 9.33334 16.9027C10.7967 16.9027 12.1067 16.258 13.0047 15.2413C12.3473 15.7167 11.5413 16 10.6667 16ZM13.2753 12.1533L14.902 12.528L15.0487 14.19L15.9073 12.7593L17.534 13.1333L16.438 11.8747L17.296 10.4433L15.7607 11.0967L14.6647 9.83733L14.8113 11.5L13.2753 12.1533Z" fill="#EEEEEE"/>
</svg>
