<svg width="24" height="24" viewBox="0 0 24 24" fill="none" xmlns="http://www.w3.org/2000/svg">
<path d="M0 6.03933V8.66667H3.752L0 6.03933ZM3.10933 20.6667H8.66667V16.7753L3.10933 20.6667ZM15.3333 16.776V20.6667H20.89L15.3333 16.776ZM0 15.3333V17.9607L3.75333 15.3333H0ZM20.8913 3.33333H15.3333V7.22467L20.8913 3.33333ZM24 17.9613V15.3333H20.246L24 17.9613ZM24 8.66667V6.03933L20.2473 8.66667H24ZM8.66667 3.33333H3.10933L8.66667 7.22467V3.33333Z" fill="#00247D"/>
<path d="M16.76 15.3333L23.2347 19.8673C23.5487 19.548 23.7733 19.146 23.8947 18.7013L19.0847 15.3333H16.76ZM8.66666 15.3333H7.23933L0.765327 19.8667C1.11266 20.22 1.55799 20.4727 2.05733 20.59L8.66666 15.962V15.3333ZM15.3333 8.66667H16.7607L23.2347 4.13333C22.8873 3.78 22.4427 3.52733 21.9433 3.41L15.3333 8.038V8.66667ZM7.23933 8.66667L0.765327 4.13333C0.451327 4.45333 0.22666 4.85467 0.10466 5.29933L4.91466 8.66667H7.23933Z" fill="#CF1B2B"/>
<path d="M24 14H14V20.6667H15.3333V16.776L20.89 20.6667H21.3333C22.078 20.6667 22.7507 20.3593 23.2347 19.8673L16.76 15.3333H19.0847L23.8947 18.7013C23.9567 18.4767 24 18.244 24 18V17.9613L20.246 15.3333H24V14ZM0 14V15.3333H3.75333L0 17.9607V18C0 18.7273 0.292667 19.3853 0.765333 19.8667L7.23933 15.3333H8.66667V15.962L2.05733 20.5893C2.25333 20.636 2.456 20.6667 2.66667 20.6667H3.10933L8.66667 16.7753V20.6667H10V14H0ZM24 6C24 5.27267 23.7073 4.61467 23.2347 4.13333L16.7607 8.66667H15.3333V8.038L21.9433 3.41C21.7467 3.364 21.544 3.33333 21.3333 3.33333H20.8913L15.3333 7.22467V3.33333H14V10H24V8.66667H20.2473L24 6.03933V6ZM8.66667 3.33333V7.22467L3.10933 3.33333H2.66667C1.92133 3.33333 1.24933 3.64067 0.765333 4.13333L7.23933 8.66667H4.91467L0.104667 5.29933C0.0433333 5.524 0 5.756 0 6V6.03933L3.752 8.66667H0V10H10V3.33333H8.66667Z" fill="#EEEEEE"/>
<path d="M14 10V3.33333H10V10H0V14H10V20.6667H14V14H24V10H14Z" fill="#CF1B2B"/>
</svg>
