<svg width="24" height="24" viewBox="0 0 24 24" fill="none" xmlns="http://www.w3.org/2000/svg">
<path d="M0 18C0 19.4727 1.194 20.6667 2.66667 20.6667H21.3333C22.806 20.6667 24 19.4727 24 18V17.6667H0V18Z" fill="#880082"/>
<path d="M0 14.7133H24V17.78H0V14.7133Z" fill="#3558A0"/>
<path d="M0 11.8867H24V14.8867H0V11.8867Z" fill="#138F3E"/>
<path d="M0 9H24V12H0V9Z" fill="#FAD220"/>
<path d="M0 6.11333H24V9.11333H0V6.11333Z" fill="#FF5000"/>
<path d="M21.3333 3.33333H2.66667C1.194 3.33333 0 4.52733 0 6V6.22H24V6C24 4.52733 22.806 3.33333 21.3333 3.33333Z" fill="#FF000E"/>
</svg>
