<svg width="48" height="48" viewBox="0 0 48 48" fill="none" xmlns="http://www.w3.org/2000/svg">
<path d="M17.3252 38.2511C30.9068 38.2511 38.3374 26.9962 38.3374 17.2389C38.3374 16.9225 38.3304 16.599 38.3163 16.2826C39.7618 15.2373 41.0092 13.9425 42 12.459C40.6538 13.058 39.2245 13.4492 37.7609 13.6192C39.3019 12.6955 40.4558 11.2443 41.0086 9.53475C39.5588 10.3939 37.9734 11 36.3202 11.327C35.2063 10.1434 33.7335 9.35977 32.1295 9.09718C30.5256 8.83458 28.8798 9.10767 27.4466 9.87424C26.0134 10.6408 24.8727 11.8582 24.2008 13.3381C23.5288 14.818 23.3631 16.478 23.7293 18.0615C20.7937 17.9142 17.9219 17.1517 15.3 15.8232C12.678 14.4948 10.3645 12.6303 8.50945 10.3504C7.5666 11.976 7.27808 13.8996 7.70255 15.7302C8.12701 17.5609 9.23259 19.1613 10.7946 20.2061C9.62194 20.1688 8.47496 19.8531 7.44844 19.285V19.3764C7.44739 21.0823 8.03715 22.736 9.11746 24.0563C10.1978 25.3765 11.702 26.2819 13.3744 26.6186C12.2881 26.9158 11.148 26.9591 10.0423 26.7451C10.5142 28.2123 11.4324 29.4954 12.6687 30.4156C13.905 31.3358 15.3977 31.847 16.9385 31.878C14.3226 33.9328 11.0913 35.0473 7.76484 35.042C7.17493 35.0411 6.5856 35.005 6 34.9337C9.37928 37.1017 13.3103 38.2532 17.3252 38.2511Z" fill="#1A50BC"/>
</svg>
