<svg width="48" height="48" viewBox="0 0 48 48" fill="none" xmlns="http://www.w3.org/2000/svg">
<g id="people">
<path id="Stroke 1 Copy" d="M2 36C2 31.5 8 31.5 11 28.5C12.5 27 8 27 8 19.5C8 14.5005 9.9995 12 14 12C18.0005 12 20 14.5005 20 19.5C20 27 15.5 27 17 28.5C20 31.5 26 31.5 26 36" stroke="#1A50BC" stroke-width="2" stroke-linecap="round"/>
<path id="Stroke 1 Copy 2" d="M23.9895 32.4862C25.1235 31.7047 26.5956 31.142 28.0042 30.4635C29.1056 29.9331 30.1681 29.3319 31 28.5C32.5 27 28 27 28 19.5C28 14.5005 29.9995 12 34 12C38.0005 12 40 14.5005 40 19.5C40 27 35.5 27 37 28.5C40 31.5 46 31.5 46 36" stroke="#1A50BC" stroke-width="2" stroke-linecap="round"/>
</g>
</svg>
