<svg width="250" height="140" viewBox="0 0 250 140" fill="none" xmlns="http://www.w3.org/2000/svg">
<path d="M102.078 4.33416C123.289 -4.17777 149.478 -0.055658 166.094 15.8493C176.551 25.7169 182.834 39.5591 184.132 53.7548C205.024 45.1434 231.557 52.986 243.349 72.3747C250.809 84.0545 252.1 99.3211 246.681 112.065C240.543 126.978 225.882 137.827 209.858 139.972C207.104 140.182 204.858 138.438 202.599 137.172C156.786 110.284 96.8736 110.256 50.3863 135.589C46.4244 137.487 42.5698 141.235 37.8156 139.595C15.9646 135.792 -1.81369 114.897 0.148223 92.6042C0.867936 80.1281 7.44225 68.2732 17.3349 60.6159C30.7672 49.9382 50.0092 47.3949 65.9259 53.7548C67.6179 32.3686 81.6662 12.0807 102.078 4.33416Z" fill="#555555"/>
</svg>
